<svg
  height='300px'
  width='300px'
  fill="#ffffff"
  xmlns="http://www.w3.org/2000/svg"
  data-name="Layer 1"
  viewBox="0 0 100 100"
  x="0px"
  y="0px"
>
  <title>chat</title>
  <path 
    fill="fill"
    d="M85.15,6.13H14.85A14.85,14.85,0,0,0,0,21V60.12A14.85,14.85,0,0,0,14.85,75H20v13c0,6.17,3.71,7.79,8.24,3.6L46.18,75h39A14.85,14.85,0,0,0,100,60.12V21A14.85,14.85,0,0,0,85.15,6.13ZM29.72,47.21a5.75,5.75,0,1,1,5.71-5.67A5.73,5.73,0,0,1,29.72,47.21Zm20.22,0a5.75,5.75,0,1,1,5.8-5.72A5.81,5.81,0,0,1,49.94,47.22Zm20.34,0A5.75,5.75,0,1,1,76,41.43,5.74,5.74,0,0,1,70.28,47.22Z">
  </path>
</svg>