<svg
  height='300px'
  width='300px'
  fill="#ffffff"
  xmlns="http://www.w3.org/2000/svg"
  xmlns:xlink="http://www.w3.org/1999/xlink"
  version="1.1"
  x="0px"
  y="0px"
  viewBox="0 0 100 100" 
  style="enable-background:new 0 0 100 100;" 
  xml:space="preserve"
>
  <path 
    fill="fill"
    d="M36.58,37.92c-0.54-0.34-1.09-0.65-1.67-0.94c-0.58-0.27-1.18-0.51-1.8-0.73c-1.4-0.45-2.9-0.69-4.44-0.69  c-1.74,0-3.41,0.31-4.95,0.87c-0.67,0.25-1.29,0.53-1.9,0.87c-1.23,0.65-2.36,1.51-3.34,2.48c-0.49,0.49-0.94,1.02-1.36,1.58  c-0.22,0.29-0.44,0.6-0.63,0.92c-0.31,0.47-0.56,0.94-0.82,1.45c-0.2,0.42-0.38,0.85-0.54,1.29c-0.16,0.47-0.31,0.96-0.44,1.47  c-0.04,0.16-0.07,0.34-0.11,0.53c-0.09,0.34-0.15,0.69-0.18,1.05c-0.04,0.18-0.05,0.36-0.07,0.54c-0.02,0.13-0.04,0.25-0.04,0.38  c-0.02,0.33-0.04,0.65-0.04,1c0,0.09,0,0.2,0.02,0.29c0,0.63,0.05,1.25,0.15,1.9c0,0.02,0,0.04,0,0.04  c0.04,0.25,0.07,0.51,0.13,0.76c0.02,0.09,0.04,0.18,0.07,0.27c0.53,2.3,1.61,4.39,3.08,6.11c2.07,2.45,4.91,4.19,8.14,4.81  c0.2,0.04,0.38,0.07,0.58,0.07c0.25,0.05,0.51,0.07,0.78,0.11c0.2,0.02,0.42,0.04,0.63,0.05H28c0.22,0.02,0.45,0.02,0.67,0.02  c0.27,0,0.54,0,0.8-0.04c0.18,0,0.34,0,0.53-0.02c0.04,0,0.09-0.02,0.13-0.02c0.47-0.04,0.94-0.11,1.41-0.2  c0.25-0.05,0.49-0.13,0.74-0.18c0.47-0.13,0.91-0.25,1.36-0.42c0.89-0.33,1.74-0.74,2.54-1.22c0.74-0.47,1.45-1,2.1-1.58  c0.18-0.16,0.34-0.31,0.51-0.47l18.06,10.83v4.44c0,8.9,8.12,15.96,17.36,14.15c5.6-1.11,10.14-5.64,11.24-11.24  c1.81-9.23-5.24-17.37-14.15-17.37c-3.95,0-7.51,1.6-10.12,4.17L43.11,54.4l-0.21-0.13l-0.37-0.22c0.38-1.29,0.58-2.65,0.58-4.06  c0-1.41-0.2-2.77-0.58-4.06l0.58-0.34l18.08-10.86c3.21,3.19,7.91,4.84,12.93,3.9c5.64-1.07,10.19-5.59,11.32-11.19  c2.03-10.1-6.55-18.92-16.61-17.23c-5.35,0.89-9.79,4.91-11.35,10.14c-0.89,2.92-0.76,5.66-0.02,8.18L38.79,39.7  C38.12,39.04,37.38,38.45,36.58,37.92z">
  </path>
</svg>